<svg width="18" height="17" viewBox="0 0 18 17" fill="none" xmlns="http://www.w3.org/2000/svg">
<path d="M8.24264 2.95315L9.00002 3.83162L9.75739 2.95315C10.2691 2.35962 10.717 1.91963 11.2399 1.61664C11.7436 1.32481 12.3729 1.12881 13.2857 1.12881C14.1278 1.12881 14.9051 1.40754 15.4844 2.05996C16.0741 2.72412 16.5714 3.90325 16.5714 5.92024C16.5714 6.72112 16.1541 8.14466 14.8926 9.84916C13.7141 11.4415 11.8324 13.2298 9.00002 14.9003C6.16761 13.2298 4.2859 11.4415 3.10739 9.84916C1.8459 8.14466 1.42859 6.72112 1.42859 5.92024C1.42859 3.90325 1.92593 2.72412 2.51565 2.05996C3.09494 1.40754 3.87227 1.12881 4.7143 1.12881C5.62716 1.12881 6.25643 1.32481 6.76013 1.61664C7.28308 1.91963 7.73092 2.35962 8.24264 2.95315Z" stroke="#F2F2F2" stroke-width="2"/>
</svg>
