<svg width="10" height="16" viewBox="0 0 10 16" fill="none" xmlns="http://www.w3.org/2000/svg">
<path d="M9.80001 10.5804C9.80001 11.4911 9.45876 12.2753 8.77625 12.933C8.09375 13.5908 7.20717 13.997 6.11653 14.1518V15.7143C6.11653 15.7976 6.08567 15.8661 6.02393 15.9196C5.9622 15.9732 5.88332 16 5.78728 16H4.39826C4.30909 16 4.23192 15.9717 4.16676 15.9152C4.1016 15.8586 4.06901 15.7917 4.06901 15.7143V14.1518C3.6163 14.0982 3.17901 14.006 2.75716 13.875C2.33531 13.744 1.9872 13.6116 1.71282 13.4777C1.43845 13.3438 1.18465 13.2009 0.951434 13.0491C0.718216 12.8973 0.558735 12.7857 0.472993 12.7143C0.387251 12.6429 0.327232 12.5893 0.292935 12.5536C0.176326 12.4286 0.169467 12.3065 0.272357 12.1875L1.33213 10.9821C1.38014 10.9226 1.45903 10.8869 1.56878 10.875C1.67167 10.8631 1.75398 10.8899 1.81571 10.9554L1.83629 10.9732C2.6114 11.5625 3.44481 11.9345 4.33653 12.0893C4.59033 12.1369 4.84412 12.1607 5.09792 12.1607C5.65353 12.1607 6.14226 12.0327 6.56411 11.7768C6.98596 11.5208 7.19688 11.1577 7.19688 10.6875C7.19688 10.5208 7.14544 10.3631 7.04255 10.2143C6.93966 10.0655 6.82476 9.94048 6.69787 9.83929C6.57097 9.7381 6.37033 9.62649 6.09596 9.50447C5.82158 9.38244 5.59522 9.2872 5.41688 9.21875C5.23854 9.1503 4.96416 9.05357 4.59376 8.92857C4.32624 8.83333 4.11532 8.75893 3.96098 8.70536C3.80664 8.65179 3.59572 8.57292 3.3282 8.46875C3.06069 8.36458 2.84633 8.27232 2.68514 8.19197C2.52394 8.11161 2.33017 8.00595 2.10381 7.875C1.87745 7.74405 1.69396 7.61756 1.55334 7.49554C1.41273 7.37351 1.26354 7.22768 1.10577 7.05804C0.948004 6.88839 0.826251 6.71577 0.740509 6.54018C0.654767 6.36458 0.582743 6.16667 0.524439 5.94643C0.466134 5.72619 0.436982 5.49405 0.436982 5.25C0.436982 4.42857 0.773091 3.70833 1.44531 3.08929C2.11753 2.47024 2.99209 2.07143 4.06901 1.89286V0.285714C4.06901 0.208333 4.1016 0.141369 4.16676 0.0848214C4.23192 0.0282738 4.30909 0 4.39826 0H5.78728C5.88332 0 5.9622 0.0267857 6.02393 0.0803571C6.08567 0.133929 6.11653 0.202381 6.11653 0.285714V1.85714C6.50752 1.89286 6.8865 1.96131 7.25347 2.0625C7.62045 2.16369 7.91883 2.26339 8.14862 2.36161C8.37841 2.45982 8.59619 2.57143 8.80198 2.69643C9.00776 2.82143 9.14151 2.90774 9.20325 2.95536C9.26498 3.00298 9.31643 3.04464 9.35758 3.08036C9.47419 3.1875 9.49134 3.3006 9.40903 3.41964L8.57562 4.72321C8.52074 4.8125 8.44186 4.86012 8.33897 4.86607C8.24294 4.88393 8.15034 4.8631 8.06116 4.80357C8.04059 4.78571 7.99086 4.75 7.91197 4.69643C7.83309 4.64286 7.69933 4.56399 7.5107 4.45982C7.32207 4.35566 7.12143 4.26042 6.90879 4.17411C6.69615 4.0878 6.44064 4.01042 6.14226 3.94196C5.84387 3.87351 5.55064 3.83929 5.26254 3.83929C4.6109 3.83929 4.0793 3.96726 3.66774 4.22321C3.25618 4.47917 3.0504 4.80952 3.0504 5.21429C3.0504 5.36905 3.07955 5.51191 3.13786 5.64286C3.19616 5.77381 3.29734 5.89732 3.44138 6.01339C3.58543 6.12946 3.7209 6.22768 3.8478 6.30804C3.9747 6.38839 4.16676 6.48065 4.42399 6.58482C4.68121 6.68899 4.88871 6.76935 5.04647 6.82589C5.20424 6.88244 5.44432 6.96429 5.76671 7.07143C6.13025 7.19048 6.40806 7.28423 6.60012 7.35268C6.79218 7.42113 7.05284 7.5253 7.38209 7.66518C7.71134 7.80506 7.97028 7.93155 8.15891 8.04464C8.34754 8.15774 8.56018 8.30655 8.79683 8.49107C9.03348 8.6756 9.21525 8.86458 9.34215 9.05804C9.46905 9.25149 9.57708 9.47917 9.66625 9.74107C9.75543 10.003 9.80001 10.2827 9.80001 10.5804Z" fill="#F2F2F2"/>
</svg>
