<svg width="10" height="8" viewBox="0 0 10 8" fill="none" xmlns="http://www.w3.org/2000/svg">
<path d="M4.42439 7.49758C4.2389 7.49804 4.05914 7.41472 3.91631 7.26206L0.28679 4.18708C0.124667 4.01328 0.0227138 3.76352 0.00335929 3.49275C-0.0159952 3.22198 0.0488343 2.95239 0.183586 2.74328C0.318338 2.53416 0.511973 2.40266 0.721896 2.3777C0.931818 2.35273 1.14083 2.43635 1.30295 2.61016L4.42439 5.15267L8.67958 0.729091C8.76079 0.644034 8.85422 0.580515 8.95452 0.542185C9.05482 0.503856 9.16 0.491472 9.26402 0.505746C9.36804 0.520019 9.46885 0.560668 9.56065 0.625356C9.65245 0.690045 9.73344 0.777498 9.79895 0.882688C9.87165 0.987974 9.92672 1.11149 9.96069 1.2455C9.99466 1.37952 10.0068 1.52113 9.99638 1.66148C9.98594 1.80183 9.95315 1.93789 9.90005 2.06113C9.84695 2.18438 9.7747 2.29215 9.68781 2.3777L4.92454 7.3235C4.7776 7.45203 4.60151 7.51332 4.42439 7.49758Z" fill="#F2F2F2"/>
</svg>
